<svg width="26" height="25" viewBox="0 0 26 25" fill="none" xmlns="http://www.w3.org/2000/svg">
<path fill-rule="evenodd" clip-rule="evenodd" d="M16.6049 0.825914C16.7848 0.303719 17.3538 0.0261567 17.876 0.205963C18.3982 0.38577 18.6758 0.954855 18.496 1.47705L15.8914 9.0412L14.0004 8.39006L16.6049 0.825914ZM9.88806 10.3958L2.32391 7.79124C1.80172 7.61143 1.23263 7.88899 1.05283 8.41119C0.87302 8.93338 1.15058 9.50247 1.67278 9.68228L9.23692 12.2868L9.88806 10.3958ZM11.3959 15.9542L8.79131 23.5184C8.6115 24.0406 8.88906 24.6096 9.41126 24.7894C9.93346 24.9693 10.5025 24.6917 10.6823 24.1695L13.2869 16.6053L11.3959 15.9542ZM16.8011 14.8914L24.3652 17.4959C24.8874 17.6757 25.4565 17.3982 25.6363 16.876C25.8161 16.3538 25.5386 15.7847 25.0164 15.6049L17.4522 13.0003L16.8011 14.8914Z" fill="#E8C5B0"/>
</svg>
