<svg width="25" height="25" viewBox="0 0 25 25" fill="none" xmlns="http://www.w3.org/2000/svg">
<path fill-rule="evenodd" clip-rule="evenodd" d="M15.7078 0.771691C15.8876 0.249496 16.4567 -0.0280664 16.9789 0.15174C17.5011 0.331547 17.7786 0.900631 17.5988 1.42283L14.9942 8.98709L13.1032 8.33597L15.7078 0.771691ZM8.99095 10.3416L1.42679 7.73716C0.904591 7.55735 0.335501 7.83492 0.155689 8.35711C-0.0241229 8.87931 0.253436 9.44839 0.775634 9.62819L8.3398 12.2327L8.99095 10.3416ZM10.4986 15.9001L7.89415 23.4641C7.71434 23.9863 7.9919 24.5554 8.5141 24.7352C9.03629 24.915 9.60538 24.6375 9.78518 24.1153L12.3897 16.5512L10.4986 15.9001ZM15.904 14.8371L23.4682 17.4416C23.9904 17.6214 24.5594 17.3438 24.7393 16.8216C24.9191 16.2994 24.6415 15.7304 24.1193 15.5506L16.5551 12.9461L15.904 14.8371Z" fill="#E8C5B0"/>
</svg>
