<svg width="33" height="34" viewBox="0 0 33 34" fill="none" xmlns="http://www.w3.org/2000/svg">
<path fill-rule="evenodd" clip-rule="evenodd" d="M10.6804 2.98915C10.5364 2.54602 10.4644 2.32445 10.48 2.12615C10.5008 1.86175 10.6258 1.61645 10.8275 1.4442C10.9788 1.31502 11.2003 1.24303 11.6435 1.09905C12.0866 0.955063 12.3082 0.883072 12.5065 0.89868C12.7709 0.919488 13.0162 1.04448 13.1884 1.24615C13.3176 1.3974 13.3896 1.61897 13.5336 2.06211L16.7782 12.0479L13.925 12.975L10.6804 2.98915ZM11.357 18.0155L1.37085 21.2602C0.927709 21.4042 0.706141 21.4762 0.554886 21.6053C0.353214 21.7776 0.228226 22.0229 0.207418 22.2873C0.191813 22.4856 0.263805 22.7072 0.407789 23.1503C0.551773 23.5934 0.623764 23.815 0.752949 23.9663C0.925194 24.1679 1.1705 24.2929 1.4349 24.3137C1.6332 24.3293 1.85477 24.2573 2.2979 24.1134L12.284 20.8687L11.357 18.0155ZM17.0152 22.4855L20.26 32.4719C20.404 32.915 20.476 33.1366 20.6051 33.2878C20.7774 33.4895 21.0227 33.6145 21.2871 33.6353C21.4854 33.6509 21.707 33.5789 22.1501 33.435C22.5932 33.291 22.8148 33.219 22.9661 33.0898C23.1677 32.9175 23.2927 32.6722 23.3135 32.4078C23.3291 32.2096 23.2571 31.988 23.1132 31.5448L19.8684 21.5585L17.0152 22.4855ZM21.7946 17.7785L31.7807 14.5339C32.2238 14.3899 32.4454 14.3179 32.5966 14.1887C32.7983 14.0165 32.9233 13.7712 32.9441 13.5068C32.9597 13.3085 32.8877 13.0869 32.7437 12.6438C32.5997 12.2006 32.5278 11.9791 32.3986 11.8278C32.2263 11.6261 31.981 11.5012 31.7166 11.4803C31.5183 11.4647 31.2968 11.5367 30.8536 11.6807L20.8675 14.9254L21.7946 17.7785Z" fill="#E8C5B0"/>
</svg>
