<svg width="336" height="194" viewBox="0 0 336 194" fill="none" xmlns="http://www.w3.org/2000/svg">
<path opacity="0.5" d="M24.4529 77.234C57.715 77.234 84.6793 55.4378 84.6793 28.5509C84.6793 1.66405 57.715 -20.1321 24.4529 -20.1321C-8.80927 -20.1321 -35.7736 1.66405 -35.7736 28.5509C-35.7736 55.4378 -8.80927 77.234 24.4529 77.234Z" stroke="#F8DEBA" stroke-width="19"/>
<path opacity="0.5" d="M323.321 153.37C356.583 153.37 383.547 131.574 383.547 104.687C383.547 77.7998 356.583 56.0037 323.321 56.0037C290.059 56.0037 263.094 77.7998 263.094 104.687C263.094 131.574 290.059 153.37 323.321 153.37Z" stroke="#F8DEBA" stroke-width="19"/>
<g filter="url(#filter0_d_0_256)">
<path d="M23.5472 38.7999C23.5472 33.5439 28.8184 29.283 35.3208 29.283H300.679C307.182 29.283 312.453 33.5439 312.453 38.7999V194H23.5472V38.7999Z" fill="white"/>
</g>
<path d="M276.226 119.694H60.6793C53.9268 119.694 48.4529 124.119 48.4529 129.577V149.343C48.4529 154.802 53.9268 159.226 60.6793 159.226H276.226C282.979 159.226 288.453 154.802 288.453 149.343V129.577C288.453 124.119 282.979 119.694 276.226 119.694Z" fill="white"/>
<path d="M146.657 144.951H144.44L142.957 141.828C142.826 141.538 142.625 141.336 142.354 141.222C142.082 141.108 141.729 141.05 141.294 141.05H139.191V144.951H137.104V135.569H142.076C143.391 135.569 144.391 135.802 145.076 136.267C145.761 136.733 146.103 137.4 146.103 138.27C146.103 138.894 145.896 139.425 145.483 139.865C145.081 140.295 144.505 140.602 143.755 140.787C144.44 140.901 144.935 141.288 145.239 141.947L146.657 144.951ZM141.783 139.733C142.576 139.733 143.163 139.614 143.544 139.377C143.924 139.14 144.114 138.78 144.114 138.296C144.114 137.822 143.924 137.471 143.544 137.242C143.174 137.005 142.587 136.886 141.783 136.886H139.158V139.733H141.783ZM155.61 141.709H149.937C149.98 142.421 150.197 142.948 150.589 143.291C150.991 143.624 151.583 143.791 152.366 143.791C153.268 143.791 154.104 143.554 154.876 143.08L155.463 144.213C155.072 144.468 154.588 144.674 154.012 144.832C153.447 144.982 152.871 145.056 152.284 145.056C150.936 145.056 149.877 144.749 149.105 144.134C148.334 143.519 147.948 142.676 147.948 141.604C147.948 140.927 148.116 140.326 148.453 139.799C148.79 139.272 149.263 138.863 149.871 138.573C150.48 138.274 151.17 138.125 151.942 138.125C153.072 138.125 153.963 138.424 154.615 139.021C155.278 139.61 155.61 140.422 155.61 141.459V141.709ZM151.991 139.311C151.447 139.311 151.002 139.443 150.654 139.706C150.317 139.961 150.1 140.335 150.002 140.826H153.833C153.768 140.326 153.577 139.948 153.262 139.693C152.958 139.438 152.534 139.311 151.991 139.311ZM165.29 138.296V144.74C165.29 145.777 164.937 146.563 164.231 147.099C163.524 147.635 162.486 147.903 161.117 147.903C159.845 147.903 158.726 147.687 157.759 147.257L158.085 146.005C159.085 146.427 160.079 146.638 161.068 146.638C162.535 146.638 163.269 146.049 163.269 144.872V143.554C163.019 143.914 162.655 144.209 162.177 144.437C161.698 144.657 161.16 144.767 160.563 144.767C159.845 144.767 159.204 144.63 158.639 144.358C158.085 144.077 157.65 143.686 157.335 143.185C157.031 142.676 156.878 142.096 156.878 141.446C156.878 140.796 157.031 140.22 157.335 139.72C157.65 139.21 158.085 138.819 158.639 138.547C159.204 138.266 159.845 138.125 160.563 138.125C161.171 138.125 161.709 138.231 162.177 138.441C162.655 138.643 163.019 138.929 163.269 139.298V138.296H165.29ZM161.101 143.475C161.774 143.475 162.302 143.295 162.682 142.935C163.073 142.575 163.269 142.078 163.269 141.446C163.269 140.813 163.079 140.317 162.698 139.957C162.318 139.597 161.785 139.417 161.101 139.417C160.427 139.417 159.894 139.597 159.503 139.957C159.123 140.317 158.933 140.813 158.933 141.446C158.933 142.078 159.123 142.575 159.503 142.935C159.894 143.295 160.427 143.475 161.101 143.475ZM167.492 138.296H169.513V144.951H167.492V138.296ZM169.627 135.279V136.9H167.362V135.279H169.627ZM174.758 145.056C173.269 145.056 172.085 144.775 171.204 144.213L171.775 143.053C172.655 143.581 173.66 143.844 174.791 143.844C175.28 143.844 175.655 143.778 175.915 143.646C176.187 143.515 176.323 143.33 176.323 143.093C176.323 142.891 176.231 142.733 176.046 142.619C175.861 142.496 175.546 142.39 175.1 142.302L173.731 142.052C172.231 141.788 171.481 141.169 171.481 140.194C171.481 139.79 171.623 139.434 171.905 139.127C172.188 138.81 172.584 138.564 173.095 138.389C173.606 138.213 174.198 138.125 174.872 138.125C175.459 138.125 176.024 138.2 176.568 138.349C177.111 138.49 177.589 138.696 178.002 138.968L177.399 140.089C176.573 139.597 175.725 139.351 174.856 139.351C174.389 139.351 174.024 139.421 173.764 139.561C173.503 139.702 173.372 139.895 173.372 140.141C173.372 140.335 173.448 140.488 173.601 140.602C173.764 140.717 174.035 140.813 174.416 140.892L175.818 141.143C176.633 141.292 177.225 141.525 177.595 141.841C177.975 142.149 178.165 142.553 178.165 143.053C178.165 143.668 177.861 144.156 177.252 144.516C176.644 144.876 175.812 145.056 174.758 145.056ZM182.422 139.535V142.513C182.422 143.295 182.873 143.686 183.775 143.686C184.025 143.686 184.296 143.651 184.59 143.581V144.885C184.231 144.991 183.797 145.043 183.286 145.043C182.351 145.043 181.634 144.832 181.134 144.411C180.634 143.989 180.384 143.383 180.384 142.592V139.535H178.803V138.296H180.384V136.676L182.422 136.122V138.296H184.606V139.535H182.422ZM193.212 141.709H187.539C187.582 142.421 187.8 142.948 188.191 143.291C188.593 143.624 189.185 143.791 189.968 143.791C190.87 143.791 191.707 143.554 192.478 143.08L193.065 144.213C192.674 144.468 192.19 144.674 191.614 144.832C191.049 144.982 190.473 145.056 189.886 145.056C188.539 145.056 187.479 144.749 186.707 144.134C185.936 143.519 185.55 142.676 185.55 141.604C185.55 140.927 185.718 140.326 186.055 139.799C186.392 139.272 186.865 138.863 187.474 138.573C188.082 138.274 188.772 138.125 189.544 138.125C190.674 138.125 191.565 138.424 192.217 139.021C192.88 139.61 193.212 140.422 193.212 141.459V141.709ZM189.593 139.311C189.049 139.311 188.604 139.443 188.256 139.706C187.919 139.961 187.702 140.335 187.604 140.826H191.435C191.37 140.326 191.179 139.948 190.864 139.693C190.56 139.438 190.136 139.311 189.593 139.311ZM199.372 138.138C199.687 138.138 199.959 138.173 200.187 138.244L200.171 139.746C199.823 139.632 199.464 139.575 199.095 139.575C198.399 139.575 197.867 139.737 197.497 140.062C197.139 140.387 196.959 140.818 196.959 141.354V144.951H194.938V140.181C194.938 139.478 194.895 138.85 194.808 138.296H196.715L196.878 139.469C197.084 139.039 197.41 138.709 197.856 138.481C198.302 138.253 198.807 138.138 199.372 138.138Z" fill="url(#paint0_linear_0_256)"/>
<path d="M276.226 119.694H60.6793C53.9268 119.694 48.4529 124.119 48.4529 129.577V149.343C48.4529 154.802 53.9268 159.226 60.6793 159.226H276.226C282.979 159.226 288.453 154.802 288.453 149.343V129.577C288.453 124.119 282.979 119.694 276.226 119.694Z" stroke="url(#paint1_linear_0_256)"/>
<g opacity="0.3">
<path opacity="0.3" d="M259.642 148.287C252.856 149.63 246.099 146.197 244.479 140.853C242.818 135.367 247.064 129.905 253.676 128.596C260.288 127.287 267.22 130.686 268.839 136.031C270.501 141.515 266.427 146.944 259.642 148.287ZM254.315 130.706C248.922 131.774 245.637 136.151 246.957 140.511C248.279 144.871 253.694 147.526 259.088 146.458C264.482 145.391 267.766 141.013 266.445 136.654C264.95 132.328 259.709 129.638 254.315 130.706Z" fill="#12E1FF"/>
<path opacity="0.3" d="M260.962 152.647C251.218 154.575 241.472 149.796 239.085 141.92C236.699 134.044 242.611 126.165 252.355 124.236C262.099 122.307 271.846 127.086 274.232 134.962C276.619 142.839 270.706 150.718 260.962 152.647ZM253.207 127.049C245.378 128.599 240.516 135.077 242.434 141.407C244.352 147.736 252.366 151.665 260.195 150.115C268.026 148.565 272.886 142.087 270.969 135.757C268.835 129.323 261.037 125.499 253.207 127.049Z" fill="#12E1FF"/>
</g>
<path d="M290.574 206.814C290.574 206.814 283.704 198.801 281.418 197.359C279.13 195.917 275.599 193.624 274.064 192.632C271.922 191.261 264.091 183.737 263.631 183.03C260.405 178.085 255.294 172.615 254.021 171.671C251.793 170.018 247.669 169.438 247.881 168.1C248.092 166.762 253.163 164.362 257.538 166.587C262.029 168.789 267.775 175.131 267.775 175.131C267.775 175.131 266.867 171.322 265.894 168.922C264.92 166.521 259.927 155.744 258.866 153.461C257.92 151.155 254.051 142.049 253.74 140.615C253.429 139.181 252.37 136.499 255.31 135.618C258.017 134.782 259.545 136.973 260.751 139.327C261.958 141.681 264.995 148.857 266.49 151.752C267.955 154.553 270.508 160.13 271.665 161.098C272.822 162.066 274.71 162.19 274.71 162.19C274.71 162.19 274.468 158.948 274.389 157.468C274.306 156.786 274.062 153.943 277.465 153.369C280.636 152.84 282.303 155.901 282.303 155.901C282.303 155.901 283.151 155.035 284.605 154.947C286.174 154.835 287.218 155.427 288.139 156.84C288.426 157.381 289.087 158.746 289.087 158.746C289.087 158.746 289.963 157.974 291.328 158.003C292.839 158.103 293.789 159.61 294.395 160.387C294.884 161.188 298.713 167.311 299.513 169.546C300.313 171.78 301.841 183.743 302.616 185.484C303.389 187.225 317.196 201.444 317.196 201.444L290.545 206.72L290.574 206.814Z" fill="#FFBD95"/>
<path d="M255.426 135.594C256.766 135.13 257.752 135.533 258.417 136.099C259.053 136.572 260.167 139.841 259.961 140.38C259.753 140.92 256.638 142.036 255.941 141.774C254.984 141.465 253.868 138.595 253.757 137.82C253.5 136.973 253.854 136.105 255.426 135.594Z" fill="#FFC8A7"/>
<path d="M259.507 167.793C259.507 167.793 263.124 170.367 266.504 173.787C267.024 174.282 267.775 175.131 267.775 175.131C267.775 175.131 267.466 178.184 267.749 179.523C267.914 180.886 269.439 183.476 269.439 183.476C269.439 183.476 266.806 181.704 266.242 178.625C265.791 176.321 265.654 175.052 265.281 174.228C264.452 171.899 259.507 167.793 259.507 167.793Z" fill="#F9A983"/>
<path d="M282.564 155.949C282.564 155.949 283.752 161.497 284.443 162.557C285.163 163.711 286.001 164.443 286.583 164.328C287.398 164.167 287.084 163.131 286.307 161.789C285.414 160.47 282.564 155.949 282.564 155.949Z" fill="#F9A983"/>
<path d="M289.348 158.794C289.348 158.794 290.459 162.463 291.15 163.523C291.841 164.583 292.39 165.172 293 165.151C293.611 165.13 293.672 164.519 293.183 163.718C292.349 162.188 289.348 158.794 289.348 158.794Z" fill="#F9A983"/>
<path d="M271.435 160.745C271.435 160.745 272.067 162.015 273.254 162.678C274.441 163.341 275.024 163.225 275.024 163.225L274.826 162.167C274.826 162.167 273.926 162.046 273.114 161.808C272.04 161.522 271.435 160.745 271.435 160.745Z" fill="#F9A983"/>
<path d="M255.797 141.703C256.492 141.965 259.521 140.966 259.844 140.404C259.437 140.285 258.449 140.281 257.43 140.583C256.324 141.001 255.972 141.469 255.797 141.703Z" fill="#FFD3B9"/>
<path d="M287.868 197.478C284.51 195.351 279.897 193.97 275.639 191.722C271.496 189.451 265.774 184.002 264.853 182.589C261.713 177.926 257.148 173.445 255.73 172.429C252.778 170.421 255.633 169.257 252.282 170.819C252.861 171.103 253.469 171.481 254.049 171.765C255.322 172.71 260.433 178.179 263.659 183.125C264.119 183.832 271.95 191.355 274.092 192.726C275.627 193.719 279.158 196.011 281.446 197.453C283.733 198.895 290.602 206.908 290.602 206.908L295.723 205.895C293.763 203.092 290.184 199.014 287.868 197.478Z" fill="#F9A983"/>
<path d="M253.412 171.292C253.645 171.246 254.291 170.122 254.117 169.956C254.06 169.768 250.671 167.946 249.451 167.989C248.23 168.031 247.356 168.403 247.441 168.685C247.527 168.967 253.063 171.362 253.412 171.292Z" fill="#FFC8A7"/>
<path d="M299.774 169.593C298.945 167.265 295.262 161.213 294.656 160.436C294.167 159.635 293.1 158.151 291.589 158.052C290.079 157.951 289.348 158.795 289.348 158.795C289.348 158.795 288.687 157.429 288.399 156.887C287.506 155.569 286.435 154.884 284.866 154.995C283.412 155.083 282.564 155.949 282.564 155.949C282.564 155.949 282.305 155.502 281.756 154.912C278.693 161.901 277.978 169.72 280.344 177.528C283.963 189.476 293.934 198.77 306.517 203.658L317.341 201.516C317.341 201.516 303.651 187.274 302.76 185.556C301.985 183.814 300.603 171.922 299.774 169.593Z" fill="#FFC6A3"/>
<defs>
<filter id="filter0_d_0_256" x="-0.45282" y="5.28296" width="336.906" height="212.717" filterUnits="userSpaceOnUse" color-interpolation-filters="sRGB">
<feFlood flood-opacity="0" result="BackgroundImageFix"/>
<feColorMatrix in="SourceAlpha" type="matrix" values="0 0 0 0 0 0 0 0 0 0 0 0 0 0 0 0 0 0 127 0" result="hardAlpha"/>
<feOffset/>
<feGaussianBlur stdDeviation="12"/>
<feColorMatrix type="matrix" values="0 0 0 0 0.977647 0 0 0 0 0.87141 0 0 0 0 0.724314 0 0 0 0.7 0"/>
<feBlend mode="normal" in2="BackgroundImageFix" result="effect1_dropShadow_0_256"/>
<feBlend mode="normal" in="SourceGraphic" in2="effect1_dropShadow_0_256" result="shape"/>
</filter>
<linearGradient id="paint0_linear_0_256" x1="168.453" y1="131.774" x2="168.453" y2="148.611" gradientUnits="userSpaceOnUse">
<stop stop-color="#41FFFF"/>
<stop offset="1" stop-color="#12E1FF"/>
</linearGradient>
<linearGradient id="paint1_linear_0_256" x1="168.453" y1="119.328" x2="168.453" y2="159.592" gradientUnits="userSpaceOnUse">
<stop stop-color="#41FFFF"/>
<stop offset="1" stop-color="#12E1FF"/>
</linearGradient>
</defs>
</svg>
