<svg width="1139" height="322" viewBox="0 0 1139 322" fill="none" xmlns="http://www.w3.org/2000/svg">
<circle cx="1026.5" cy="9.5" r="8" stroke="#E8C5B0" stroke-width="3"/>
<circle cx="9.5" cy="92.5" r="8" stroke="#E8C5B0" stroke-width="3"/>
<circle cx="661" cy="309" r="11.5" stroke="#E8C5B0" stroke-width="3"/>
<path fill-rule="evenodd" clip-rule="evenodd" d="M199.708 252.929C199.888 252.407 200.457 252.129 200.979 252.309C201.501 252.489 201.779 253.058 201.599 253.58L198.994 261.144L197.103 260.493L199.708 252.929ZM192.991 262.499L185.427 259.894C184.905 259.715 184.336 259.992 184.156 260.514C183.976 261.037 184.253 261.606 184.776 261.785L192.34 264.39L192.991 262.499ZM194.499 268.057L191.894 275.621C191.714 276.144 191.992 276.713 192.514 276.892C193.036 277.072 193.605 276.795 193.785 276.273L196.39 268.708L194.499 268.057ZM199.904 266.994L207.468 269.599C207.99 269.779 208.56 269.501 208.739 268.979C208.919 268.457 208.642 267.888 208.119 267.708L200.555 265.103L199.904 266.994Z" fill="#E8C5B0"/>
<path d="M1069.65 263.813C1069.65 263.813 1068.6 239.271 1080.21 215.162C1091.82 191.053 1114.27 176.232 1114.27 176.232" stroke="#E8C5B0" stroke-width="2" stroke-linecap="square"/>
<path d="M1069.75 263.94C1069.75 263.94 1067.04 257.642 1063.78 253.971C1060.52 250.3 1057.33 249.555 1057.33 249.555" stroke="#E8C5B0" stroke-width="2" stroke-linecap="square"/>
<path d="M1069.04 264.17C1069.04 264.17 1073.33 257.825 1076.03 255.5C1078.72 253.174 1082.7 250.922 1082.7 250.922" stroke="#E8C5B0" stroke-width="2" stroke-linecap="square"/>
</svg>
