<svg width="340" height="194" viewBox="0 0 340 194" fill="none" xmlns="http://www.w3.org/2000/svg">
<path d="M329.235 0H10.7652C6.80155 0 3.58839 2.54525 3.58839 5.68498V182.63C3.58839 185.77 6.80155 188.315 10.7652 188.315H329.235C333.199 188.315 336.412 185.77 336.412 182.63V5.68498C336.412 2.54525 333.199 0 329.235 0Z" fill="#E4E0F7"/>
<mask id="mask0_0_310" style="mask-type:alpha" maskUnits="userSpaceOnUse" x="3" y="0" width="334" height="189">
<path d="M336.412 0H3.58839V188.315H336.412V0Z" fill="#FFF2E6"/>
</mask>
<g mask="url(#mask0_0_310)">
<path opacity="0.5" d="M27.81 74.9706C60.7577 74.9706 87.467 53.8132 87.467 27.7142C87.467 1.61518 60.7577 -19.5422 27.81 -19.5422C-5.13763 -19.5422 -31.847 1.61518 -31.847 27.7142C-31.847 53.8132 -5.13763 74.9706 27.81 74.9706Z" stroke="#CDC6F4" stroke-width="19"/>
<path opacity="0.5" d="M323.852 148.875C356.8 148.875 383.509 127.718 383.509 101.619C383.509 75.52 356.8 54.3625 323.852 54.3625C290.905 54.3625 264.195 75.52 264.195 101.619C264.195 127.718 290.905 148.875 323.852 148.875Z" stroke="#CDC6F4" stroke-width="19"/>
<g filter="url(#filter0_d_0_310)">
<path d="M26.9129 37.6629C26.9129 32.5608 32.1343 28.4248 38.5752 28.4248H301.425C307.866 28.4248 313.087 32.5608 313.087 37.6629V188.315H26.9129V37.6629Z" fill="white"/>
</g>
<path d="M277.203 88.4724H63.6939C57.0053 88.4724 51.5831 92.7675 51.5831 98.0658V117.253C51.5831 122.551 57.0053 126.846 63.6939 126.846H277.203C283.892 126.846 289.314 122.551 289.314 117.253V98.0658C289.314 92.7675 283.892 88.4724 277.203 88.4724Z" fill="white"/>
<path d="M277.203 88.4724H63.6939C57.0053 88.4724 51.5831 92.7675 51.5831 98.0658V117.253C51.5831 122.551 57.0053 126.846 63.6939 126.846H277.203C283.892 126.846 289.314 122.551 289.314 117.253V98.0658C289.314 92.7675 283.892 88.4724 277.203 88.4724Z" stroke="#BDC7D2"/>
<path d="M277.203 136.014H63.6939C57.0053 136.014 51.5831 140.309 51.5831 145.607V164.794C51.5831 170.092 57.0053 174.387 63.6939 174.387H277.203C283.892 174.387 289.314 170.092 289.314 164.794V145.607C289.314 140.309 283.892 136.014 277.203 136.014Z" fill="white"/>
<path d="M154.647 151.423H159.637C160.875 151.423 161.838 151.662 162.527 152.139C163.216 152.608 163.561 153.252 163.561 154.071C163.561 154.889 163.211 155.537 162.511 156.015C161.822 156.493 160.864 156.731 159.637 156.731H156.73V160.53H154.647V151.423ZM159.394 155.452C160.116 155.452 160.659 155.337 161.025 155.107C161.402 154.868 161.591 154.527 161.591 154.084C161.591 153.632 161.408 153.29 161.042 153.06C160.676 152.821 160.127 152.702 159.394 152.702H156.73V155.452H159.394ZM165.256 151.116H167.258V160.53H165.256V151.116ZM177.266 154.071V160.53H175.28V159.494C175.033 159.852 174.677 160.134 174.215 160.338C173.752 160.535 173.224 160.633 172.632 160.633C171.922 160.633 171.292 160.496 170.743 160.223C170.194 159.95 169.769 159.562 169.467 159.059C169.166 158.556 169.015 157.972 169.015 157.307C169.015 156.642 169.166 156.053 169.467 155.542C169.779 155.022 170.21 154.621 170.759 154.339C171.308 154.049 171.932 153.904 172.632 153.904C173.224 153.904 173.752 154.007 174.215 154.211C174.677 154.408 175.033 154.685 175.28 155.043V154.071H177.266ZM173.181 159.379C173.849 159.379 174.365 159.196 174.731 158.829C175.097 158.462 175.28 157.946 175.28 157.281C175.28 156.599 175.097 156.075 174.731 155.708C174.365 155.341 173.843 155.158 173.165 155.158C172.498 155.158 171.975 155.35 171.599 155.734C171.233 156.109 171.05 156.633 171.05 157.307C171.05 157.972 171.233 158.484 171.599 158.842C171.975 159.2 172.503 159.379 173.181 159.379ZM187.183 154.071L183.388 160.965C182.958 161.767 182.409 162.351 181.741 162.718C181.074 163.084 180.25 163.327 179.271 163.447L178.818 162.219C179.583 162.082 180.153 161.907 180.53 161.694C180.918 161.49 181.23 161.183 181.467 160.773L181.725 160.3L178.334 154.071H180.449L182.791 158.714L185.181 154.071H187.183Z" fill="url(#paint0_linear_0_310)"/>
<path d="M277.203 136.014H63.6939C57.0053 136.014 51.5831 140.309 51.5831 145.607V164.794C51.5831 170.092 57.0053 174.387 63.6939 174.387H277.203C283.892 174.387 289.314 170.092 289.314 164.794V145.607C289.314 140.309 283.892 136.014 277.203 136.014Z" stroke="url(#paint1_linear_0_310)"/>
<g opacity="0.3">
<path opacity="0.3" d="M264.812 163.957C259.757 164.938 254.724 162.431 253.517 158.53C252.279 154.526 255.442 150.538 260.368 149.583C265.293 148.627 270.456 151.108 271.663 155.01C272.901 159.014 269.867 162.976 264.812 163.957ZM260.844 151.123C256.827 151.903 254.379 155.098 255.363 158.28C256.347 161.463 260.381 163.402 264.399 162.622C268.417 161.843 270.864 158.647 269.88 155.464C268.766 152.307 264.862 150.343 260.844 151.123Z" fill="#12E1FF"/>
<path opacity="0.3" d="M265.796 167.14C258.537 168.548 251.277 165.059 249.499 159.309C247.722 153.56 252.126 147.809 259.384 146.4C266.643 144.993 273.903 148.481 275.681 154.231C277.458 159.98 273.054 165.731 265.796 167.14ZM260.018 148.454C254.186 149.585 250.565 154.314 251.994 158.934C253.422 163.555 259.392 166.423 265.224 165.291C271.057 164.16 274.678 159.431 273.25 154.811C271.66 150.113 265.851 147.322 260.018 148.454Z" fill="#12E1FF"/>
</g>
<path d="M287.854 206.681C287.854 206.681 282.736 200.831 281.033 199.779C279.329 198.726 276.698 197.053 275.555 196.328C273.959 195.327 268.126 189.835 267.783 189.32C265.38 185.709 261.573 181.717 260.625 181.027C258.965 179.82 255.894 179.397 256.051 178.42C256.208 177.443 259.986 175.691 263.245 177.316C266.591 178.923 270.871 183.552 270.871 183.552C270.871 183.552 270.194 180.772 269.469 179.02C268.744 177.268 265.025 169.4 264.234 167.734C263.53 166.051 260.647 159.403 260.416 158.356C260.184 157.31 259.395 155.352 261.586 154.709C263.602 154.099 264.74 155.698 265.639 157.416C266.538 159.135 268.8 164.373 269.913 166.487C271.005 168.531 272.907 172.602 273.768 173.309C274.63 174.015 276.037 174.107 276.037 174.107C276.037 174.107 275.856 171.74 275.797 170.659C275.736 170.161 275.553 168.086 278.089 167.666C280.451 167.281 281.693 169.515 281.693 169.515C281.693 169.515 282.325 168.883 283.407 168.818C284.576 168.737 285.353 169.169 286.04 170.2C286.254 170.595 286.746 171.592 286.746 171.592C286.746 171.592 287.399 171.029 288.416 171.05C289.541 171.123 290.249 172.223 290.7 172.791C291.064 173.375 293.916 177.844 294.513 179.475C295.109 181.107 296.247 189.839 296.824 191.11C297.4 192.382 307.685 202.761 307.685 202.761L287.832 206.612L287.854 206.681Z" fill="#FFBD95"/>
<path d="M261.673 154.692C262.67 154.353 263.404 154.647 263.899 155.061C264.374 155.405 265.204 157.791 265.049 158.186C264.896 158.58 262.574 159.394 262.057 159.203C261.343 158.978 260.512 156.883 260.428 156.316C260.237 155.698 260.501 155.065 261.673 154.692Z" fill="#FFC8A7"/>
<path d="M264.712 178.196C264.712 178.196 267.406 180.075 269.924 182.572C270.312 182.933 270.871 183.552 270.871 183.552C270.871 183.552 270.641 185.781 270.851 186.759C270.975 187.754 272.11 189.644 272.11 189.644C272.11 189.644 270.148 188.351 269.729 186.103C269.393 184.421 269.291 183.495 269.013 182.893C268.395 181.194 264.712 178.196 264.712 178.196Z" fill="#F9A983"/>
<path d="M281.888 169.55C281.888 169.55 282.772 173.601 283.287 174.374C283.823 175.217 284.447 175.75 284.881 175.667C285.488 175.549 285.255 174.793 284.676 173.813C284.01 172.851 281.888 169.55 281.888 169.55Z" fill="#F9A983"/>
<path d="M286.94 171.627C286.94 171.627 287.768 174.306 288.283 175.079C288.798 175.853 289.206 176.283 289.661 176.268C290.116 176.252 290.162 175.807 289.797 175.222C289.177 174.105 286.94 171.627 286.94 171.627Z" fill="#F9A983"/>
<path d="M273.597 173.051C273.597 173.051 274.068 173.979 274.952 174.462C275.837 174.946 276.27 174.862 276.27 174.862L276.123 174.09C276.123 174.09 275.453 174.002 274.847 173.827C274.048 173.619 273.597 173.051 273.597 173.051Z" fill="#F9A983"/>
<path d="M261.948 159.151C262.467 159.342 264.722 158.613 264.963 158.202C264.66 158.116 263.924 158.113 263.165 158.333C262.341 158.639 262.079 158.981 261.948 159.151Z" fill="#FFD3B9"/>
<path d="M285.838 199.865C283.336 198.313 279.9 197.305 276.728 195.664C273.643 194.006 269.38 190.029 268.694 188.997C266.355 185.593 262.955 182.322 261.898 181.58C259.699 180.114 261.826 179.265 259.329 180.405C259.761 180.612 260.214 180.888 260.645 181.096C261.594 181.785 265.401 185.778 267.804 189.388C268.147 189.904 273.981 195.396 275.576 196.397C276.719 197.122 279.35 198.794 281.053 199.848C282.758 200.9 287.874 206.75 287.874 206.75L291.689 206.009C290.229 203.963 287.563 200.987 285.838 199.865Z" fill="#F9A983"/>
<path d="M260.172 180.751C260.345 180.717 260.827 179.896 260.697 179.775C260.654 179.638 258.13 178.308 257.22 178.339C256.312 178.37 255.66 178.642 255.724 178.847C255.788 179.053 259.912 180.801 260.172 180.751Z" fill="#FFC8A7"/>
<path d="M294.707 179.51C294.09 177.811 291.346 173.393 290.895 172.826C290.53 172.241 289.736 171.158 288.611 171.085C287.485 171.012 286.94 171.627 286.94 171.627C286.94 171.627 286.449 170.63 286.234 170.235C285.569 169.272 284.771 168.772 283.601 168.854C282.518 168.918 281.887 169.55 281.887 169.55C281.887 169.55 281.694 169.223 281.286 168.793C279.004 173.895 278.471 179.603 280.233 185.303C282.929 194.024 290.356 200.808 299.73 204.377L307.792 202.813C307.792 202.813 297.595 192.417 296.931 191.162C296.354 189.891 295.325 181.21 294.707 179.51Z" fill="#FFC6A3"/>
<path d="M170.449 75.3261C182.835 75.3261 192.876 67.3721 192.876 57.5605C192.876 47.7488 182.835 39.7949 170.449 39.7949C158.062 39.7949 148.021 47.7488 148.021 57.5605C148.021 67.3721 158.062 75.3261 170.449 75.3261Z" fill="#8391A0"/>
<path d="M170.45 44.4246C165.519 44.4246 161.487 47.6183 161.487 51.5252C161.487 55.4322 165.519 58.6259 170.45 58.6259C175.383 58.6259 179.415 55.4322 179.415 51.5252C179.415 47.6183 175.383 44.4246 170.45 44.4246Z" fill="white"/>
<path d="M185.834 64.3002C185.6 63.8351 185.287 63.4009 184.934 62.9979C183.134 60.8893 180.354 59.494 177.223 59.1529C176.831 59.1219 176.401 59.1839 176.088 59.37C174.443 60.3312 172.486 60.8273 170.45 60.8273C168.415 60.8273 166.458 60.3312 164.814 59.37C164.501 59.1839 164.07 59.0909 163.679 59.1529C160.547 59.494 157.729 60.8893 155.968 62.9979C155.615 63.4009 155.302 63.866 155.067 64.3002C154.95 64.4862 154.989 64.7032 155.106 64.8893C155.419 65.3234 155.811 65.7576 156.163 66.1296C156.711 66.7188 157.298 67.2458 157.964 67.742C158.512 68.176 159.138 68.5792 159.764 68.9822C162.857 70.8117 166.576 71.7729 170.412 71.7729C174.248 71.7729 177.966 70.8117 181.059 68.9822C181.685 68.6102 182.311 68.176 182.859 67.742C183.486 67.2458 184.112 66.7187 184.66 66.1296C185.052 65.7265 185.404 65.3234 185.717 64.8893C185.913 64.7032 185.951 64.4861 185.834 64.3002Z" fill="white"/>
</g>
<defs>
<filter id="filter0_d_0_310" x="2.91293" y="4.4248" width="334.174" height="207.89" filterUnits="userSpaceOnUse" color-interpolation-filters="sRGB">
<feFlood flood-opacity="0" result="BackgroundImageFix"/>
<feColorMatrix in="SourceAlpha" type="matrix" values="0 0 0 0 0 0 0 0 0 0 0 0 0 0 0 0 0 0 127 0" result="hardAlpha"/>
<feOffset/>
<feGaussianBlur stdDeviation="12"/>
<feColorMatrix type="matrix" values="0 0 0 0 0.803922 0 0 0 0 0.776471 0 0 0 0 0.956863 0 0 0 0.7 0"/>
<feBlend mode="normal" in2="BackgroundImageFix" result="effect1_dropShadow_0_310"/>
<feBlend mode="normal" in="SourceGraphic" in2="effect1_dropShadow_0_310" result="shape"/>
</filter>
<linearGradient id="paint0_linear_0_310" x1="170.449" y1="147.739" x2="170.449" y2="164.083" gradientUnits="userSpaceOnUse">
<stop stop-color="#41FFFF"/>
<stop offset="1" stop-color="#12E1FF"/>
</linearGradient>
<linearGradient id="paint1_linear_0_310" x1="170.449" y1="135.658" x2="170.449" y2="174.743" gradientUnits="userSpaceOnUse">
<stop stop-color="#41FFFF"/>
<stop offset="1" stop-color="#12E1FF"/>
</linearGradient>
</defs>
</svg>
